<svg xmlns="http://www.w3.org/2000/svg" width="76" height="29" viewBox="0 0 76 29">
  <path fill="#525252" fill-rule="evenodd" d="M605.024001,41.238 C603.232001,41.238 602.238001,40.286 602.238001,39.18 C602.238001,38.438 602.784001,37.542 603.708001,37.542 C604.408001,37.542 604.828001,38.004 604.828001,38.634 C604.828001,39.376 604.296001,39.992 603.414001,40.104 C603.568001,40.594 604.170001,40.916 604.730001,40.916 C605.612001,40.916 606.144001,40.202 606.760001,37.934 L608.370001,31.984 C608.454001,31.662 608.272001,31.466 607.012001,31.424 L607.054001,31.242 L612.360001,31.242 L612.318001,31.424 C611.114001,31.466 610.806001,31.662 610.722001,31.984 L609.196001,37.64 C608.538001,40.062 607.460001,41.238 605.024001,41.238 Z M619.542,31.424 C618.338,31.466 618.03,31.662 617.946,31.984 L615.734,40.23 C615.594,40.734 615.86,40.762 617.036,40.804 L616.994,41 L611.744,41 L611.786,40.804 C612.976,40.762 613.228,40.734 613.368,40.23 L615.594,31.984 C615.678,31.662 615.552,31.466 614.292,31.424 L614.334,31.242 L619.584,31.242 L619.542,31.424 Z M619.5,41.224 L620.62,37.374 L620.844,37.374 C621.46,39.81 622.244,40.93 623.798,40.93 C624.862,40.93 625.842,40.37 625.842,39.292 C625.842,38.116 624.806,37.584 623.728,37.01 C622.608,36.408 621.446,35.778 621.446,34.336 C621.446,32.712 622.874,31.06 625.114,31.06 C626.108,31.06 626.906,31.256 627.676,31.634 L628.46,30.976 L628.684,30.976 L627.83,34.49 L627.578,34.49 C626.78,31.956 625.87,31.326 624.834,31.326 C623.896,31.326 623.154,31.844 623.154,32.866 C623.154,33.818 624.12,34.322 625.142,34.896 C626.276,35.54 627.466,36.24 627.466,37.696 C627.466,39.544 626.108,41.182 623.7,41.182 C622.314,41.182 621.236,40.832 620.48,40.44 L619.724,41.224 L619.5,41.224 Z M631.61,31.242 L631.568,31.424 C632.786,31.466 632.898,31.662 632.814,31.984 L630.602,40.23 C630.462,40.734 630.21,40.762 629.062,40.804 L629.02,41 L638.134,41 L639.128,37.318 L638.89,37.318 C637.602,39.334 636.412,40.706 634.452,40.706 L632.828,40.706 L634.088,35.988 L634.732,35.988 C635.824,35.988 635.88,36.38 636.244,37.962 L636.454,37.962 L637.504,33.93 L637.294,33.93 C636.244,35.302 635.894,35.708 634.802,35.708 L634.158,35.708 L635.278,31.536 L636.636,31.536 C638.302,31.536 638.722,32.754 639.1,34.714 L639.324,34.714 L640.192,31.242 L631.61,31.242 Z M646.422,31.984 L645.008,37.262 C644.854,37.85 644.77,38.354 644.77,38.788 C644.77,40.118 645.498,40.748 646.898,40.748 C648.312,40.748 649.488,39.936 650.104,37.64 L651.28,33.258 C651.574,32.152 651.224,31.494 649.866,31.424 L649.908,31.242 L653.856,31.242 L653.814,31.424 C652.554,31.55 652.008,31.998 651.672,33.244 L650.426,37.906 C649.81,40.202 648.55,41.238 646.114,41.238 C643.874,41.238 642.516,40.356 642.53,38.396 C642.53,37.962 642.614,37.458 642.754,36.912 L644.07,31.984 C644.154,31.662 644.042,31.466 642.824,31.424 L642.866,31.242 L647.92,31.242 L647.878,31.424 C646.8,31.48 646.506,31.662 646.422,31.984 Z M659.26,31.242 L662.97,38.494 L662.984,38.494 L664.328,33.412 C664.706,31.984 664.314,31.494 662.956,31.424 L662.998,31.242 L666.946,31.242 L666.904,31.424 C665.644,31.55 665.042,32.194 664.72,33.398 L662.648,41.126 L661.724,41.126 L657.552,32.964 L657.538,32.964 L655.97,38.83 C655.592,40.258 655.984,40.734 657.342,40.804 L657.3,41 L653.352,41 L653.394,40.804 C654.654,40.678 655.256,40.048 655.578,38.844 L657.188,32.81 C657.356,32.18 657.006,31.494 655.914,31.424 L655.956,31.242 L659.26,31.242 Z M677.544,31.046 L677.32,31.046 L676.578,31.592 C675.92,31.256 675.052,31.004 673.82,31.004 C669.858,31.004 667.548,34.308 667.548,36.982 C667.548,39.67 669.564,41.238 671.93,41.238 C673.106,41.238 674.492,40.944 675.57,40.51 L676.494,37.164 C676.578,36.842 676.69,36.66 677.67,36.604 L677.712,36.422 L672.98,36.422 L672.938,36.604 C674.212,36.66 674.324,36.842 674.24,37.164 L673.33,40.608 C672.868,40.86 672.518,40.944 672.084,40.944 C670.698,40.944 669.998,39.656 669.998,38.144 C669.998,35.19 671.622,31.298 673.946,31.298 C675.024,31.298 675.472,31.998 676.41,34.63 L676.634,34.63 L677.544,31.046 Z M626.416,53.002 L627.032,53.002 C629.636,53.002 629.888,50.818 629.888,50.034 C629.888,49.054 629.51,48.508 628.474,48.508 L627.62,48.508 L626.416,53.002 Z M623.896,48.424 L623.938,48.242 L628.698,48.242 C630.938,48.242 632.198,48.914 632.198,50.286 C632.198,51.532 631.386,52.722 628.264,53.086 L628.25,53.156 C630.434,53.268 631.064,53.94 630.84,55.494 L630.742,56.32 C630.588,57.636 630.742,57.776 631.862,57.846 L631.82,58.042 C631.358,58.084 631.022,58.098 630.462,58.098 C628.376,58.098 628.068,57.44 628.306,56.166 L628.544,54.878 C628.782,53.618 628.474,53.268 627.34,53.268 L626.346,53.268 L625.282,57.23 C625.142,57.762 625.576,57.762 626.444,57.804 L626.402,58 L621.348,58 L621.39,57.804 C622.538,57.762 622.79,57.734 622.93,57.23 L625.142,48.984 C625.226,48.662 625.114,48.466 623.896,48.424 Z M638.624,58.238 C636.258,58.238 634.382,56.838 634.382,54.15 C634.382,51.476 636.552,48.004 640.304,48.004 C642.67,48.004 644.546,49.404 644.546,52.092 C644.546,54.766 642.376,58.238 638.624,58.238 Z M638.218,57.944 C640.612,57.944 642.236,53.548 642.236,50.608 C642.236,49.124 641.732,48.298 640.71,48.298 C638.316,48.298 636.692,52.694 636.692,55.634 C636.692,57.118 637.196,57.944 638.218,57.944 Z M651.532,58 L656.6,58 L656.642,57.804 C655.508,57.762 655.242,57.734 655.382,57.23 L657.594,48.984 C657.678,48.662 657.986,48.466 659.148,48.424 L659.19,48.242 L654.122,48.242 L654.08,48.424 C655.214,48.48 655.326,48.662 655.242,48.984 L654.22,52.792 L650.566,52.792 L651.588,48.984 C651.672,48.662 651.966,48.48 653.044,48.424 L653.086,48.242 L648.032,48.242 L647.99,48.424 C649.208,48.466 649.32,48.662 649.236,48.984 L647.024,57.23 C646.884,57.734 646.632,57.762 645.484,57.804 L645.442,58 L650.496,58 L650.538,57.804 C649.67,57.762 649.236,57.762 649.376,57.23 L650.496,53.072 L654.15,53.072 L653.03,57.23 C652.89,57.762 652.456,57.762 651.574,57.804 L651.532,58 Z" transform="translate(-602 -30)"/>
</svg>
