
<svg width="470px" height="30px" viewBox="0 0 470 30" version="1.1" xmlns="http://www.w3.org/2000/svg" xmlns:xlink="http://www.w3.org/1999/xlink">
  <g id="Page-1" stroke="none" stroke-width="1" fill="none" fill-rule="evenodd">
    <g id="Portfolio" transform="translate(-405.000000, -334.000000)" fill="#525252">
      <g id="Landing" transform="translate(405.000000, 334.000000)">
        <g id="Logo(untitled)">
          <g id="I-design-and-build-d">
            <path d="M0.28,23 L11.16,23 L11.16,22.584 C8.248,22.488 7.576,21.784 7.576,20.472 L7.576,3.192 C7.576,1.912 8.248,1.176 11.16,1.08 L11.16,0.696 L0.28,0.696 L0.28,1.08 C3.192,1.176 3.864,1.912 3.864,3.192 L3.864,20.472 C3.864,21.784 3.192,22.488 0.28,22.584 L0.28,23 Z M25.784,23.256 C21.816,23.256 19.448,20.024 19.448,15.832 C19.448,11.448 22.424,7.992 26.808,7.992 C28.344,7.992 29.208,8.312 30.072,8.76 L30.072,2.264 C30.072,1.176 29.752,0.696 27.512,0.632 L27.512,0.248 L33.432,0.056 L33.432,21.368 C33.432,22.168 33.912,22.648 35.736,22.68 L35.736,23 L30.136,23.128 L30.136,21.368 C29.08,22.456 27.64,23.256 25.784,23.256 Z M27.352,21.912 C28.6,21.912 29.4,21.432 30.072,20.696 L30.072,10.232 C29.368,9.24 28.472,8.6 27,8.6 C24.568,8.6 23.096,11.416 23.096,15.672 C23.096,19.192 24.568,21.912 27.352,21.912 Z M44.12,23.256 C39.832,23.256 36.888,20.216 36.888,15.8 C36.888,11.224 40.216,7.992 44.12,7.992 C48.408,7.992 50.616,11 50.36,14.808 L40.536,14.808 L40.536,15.608 C40.536,19.32 42.2,21.976 45.56,21.976 C47.576,21.976 48.76,20.952 50.072,19.256 L50.424,19.512 C49.144,21.592 47.32,23.256 44.12,23.256 Z M43.896,8.6 C41.976,8.6 40.792,10.552 40.568,14.232 L46.776,14.232 C47.096,10.712 46.296,8.6 43.896,8.6 Z M52.568,23.256 L52.92,23.256 L53.976,22.104 C54.936,22.744 57.016,23.256 58.2,23.256 C61.688,23.256 63.608,21.016 63.608,18.328 C63.608,15.832 62.04,14.68 58.776,13.784 C56.312,13.144 55.032,12.44 55.032,11.064 C55.032,9.592 56.152,8.6 57.624,8.6 C59.576,8.6 60.504,9.752 62.36,12.76 L62.808,12.76 L62.808,7.992 L62.456,7.992 L61.656,8.984 C60.792,8.472 59.448,7.992 58.04,7.992 C54.744,7.992 52.632,9.944 52.632,12.696 C52.632,15.064 54.008,16.088 57.272,17.016 C60.44,17.912 61.336,18.712 61.336,20.184 C61.336,21.432 60.376,22.648 58.584,22.648 C56.28,22.648 55.064,21.496 53.016,17.944 L52.568,17.944 L52.568,23.256 Z M69.368,5.432 C70.648,5.432 71.48,4.536 71.48,3.256 C71.48,1.976 70.648,1.144 69.368,1.144 C68.12,1.144 67.288,2.04 67.288,3.352 C67.288,4.632 68.12,5.432 69.368,5.432 Z M65.528,23 L73.56,23 L73.56,22.616 C71.576,22.584 71.224,22.36 71.224,21.4 L71.224,8.184 L65.528,8.408 L65.528,8.792 C67.384,8.824 67.864,9.432 67.864,10.392 L67.864,21.4 C67.864,22.36 67.384,22.584 65.528,22.616 L65.528,23 Z M81.976,28.888 C84.696,28.888 86.872,27.512 86.872,25.432 C86.872,24.152 85.848,23.32 82.68,23.32 L79.416,23.32 C77.88,23.8 77.144,24.6 77.144,25.784 C77.144,27.576 78.584,28.888 81.976,28.888 Z M81.688,17.4 C83.48,17.4 84.184,16.024 84.184,13.016 C84.184,10.36 83.288,8.664 81.4,8.664 C79.576,8.664 78.904,10.04 78.904,13.016 C78.904,16.024 79.832,17.4 81.688,17.4 Z M81.56,8.088 C82.552,8.088 83.576,8.312 84.472,8.696 C85.176,7.288 86.136,6.072 87.704,6.072 C88.888,6.072 89.56,6.776 89.56,7.704 C89.56,8.472 88.984,9.08 88.184,9.08 C87.48,9.08 86.744,8.472 86.744,7.448 C86.008,7.576 85.368,8.248 84.984,8.952 C86.52,9.752 87.608,11.064 87.608,12.952 C87.608,16.056 84.696,17.944 81.56,17.944 C80.856,17.944 80.12,17.848 79.448,17.688 C78.2,18.104 77.592,18.584 77.592,19.224 C77.592,19.864 78.136,20.376 80.664,20.376 L83.16,20.376 C87.032,20.376 89.016,21.528 89.016,24.28 C89.016,26.936 86.264,29.432 81.144,29.432 C77.176,29.432 74.648,28.056 74.648,26.2 C74.648,24.76 76.024,23.544 78.488,23.192 L78.488,23.128 C76.472,22.584 75.704,21.624 75.704,20.344 C75.704,19.32 76.696,18.136 78.648,17.432 C76.824,16.696 75.48,15.288 75.48,13.08 C75.48,10.008 78.424,8.088 81.56,8.088 Z M89.752,23 L97.272,23 L97.272,22.616 C95.832,22.584 95.384,22.36 95.384,21.4 L95.384,12.408 C96.248,10.776 97.464,9.72 98.84,9.72 C100.76,9.72 101.432,10.872 101.432,13.176 L101.432,21.4 C101.432,22.36 100.984,22.584 99.512,22.616 L99.512,23 L107.064,23 L107.064,22.616 C105.208,22.584 104.792,22.36 104.792,21.4 L104.792,12.568 C104.792,9.624 103.384,8.088 100.856,8.088 C98.712,8.088 96.76,9.368 95.32,11.64 L95.32,8.184 L89.752,8.408 L89.752,8.792 C91.576,8.824 92.024,9.432 92.024,10.392 L92.024,21.4 C92.024,22.36 91.576,22.584 89.752,22.616 L89.752,23 Z M118.584,23.192 C115.736,23.192 114.488,21.432 114.488,19.64 C114.488,18.392 115.064,17.144 116.408,16.408 C118.776,15.096 122.52,14.904 123.256,14.552 L123.256,12.248 C123.256,9.848 122.552,8.696 120.664,8.696 C119.576,8.696 118.584,9.048 118.008,9.624 C118.552,10.136 118.872,10.712 118.872,11.352 C118.872,12.472 118.2,13.24 116.952,13.24 C115.832,13.24 115.096,12.408 115.096,11.352 C115.096,9.464 117.432,8.088 121.048,8.088 C124.664,8.088 126.584,9.496 126.584,12.792 L126.584,20.248 C126.584,21.816 127.16,22.488 129.016,21.72 L129.144,22.04 C128.024,22.744 127.192,23.128 126.072,23.128 C124.28,23.128 123.608,22.392 123.416,20.664 L123.288,20.664 C122.072,22.072 120.568,23.192 118.584,23.192 Z M120.44,21.72 C121.592,21.72 122.616,20.824 123.256,19.928 L123.256,15.16 C119,15.992 118.072,16.92 118.072,19.096 C118.072,20.632 118.808,21.72 120.44,21.72 Z M129.592,23 L137.112,23 L137.112,22.616 C135.672,22.584 135.224,22.36 135.224,21.4 L135.224,12.408 C136.088,10.776 137.304,9.72 138.68,9.72 C140.6,9.72 141.272,10.872 141.272,13.176 L141.272,21.4 C141.272,22.36 140.824,22.584 139.352,22.616 L139.352,23 L146.904,23 L146.904,22.616 C145.048,22.584 144.632,22.36 144.632,21.4 L144.632,12.568 C144.632,9.624 143.224,8.088 140.696,8.088 C138.552,8.088 136.6,9.368 135.16,11.64 L135.16,8.184 L129.592,8.408 L129.592,8.792 C131.416,8.824 131.864,9.432 131.864,10.392 L131.864,21.4 C131.864,22.36 131.416,22.584 129.592,22.616 L129.592,23 Z M154.424,23.256 C150.456,23.256 148.088,20.024 148.088,15.832 C148.088,11.448 151.064,7.992 155.448,7.992 C156.984,7.992 157.848,8.312 158.712,8.76 L158.712,2.264 C158.712,1.176 158.392,0.696 156.152,0.632 L156.152,0.248 L162.072,0.056 L162.072,21.368 C162.072,22.168 162.552,22.648 164.376,22.68 L164.376,23 L158.776,23.128 L158.776,21.368 C157.72,22.456 156.28,23.256 154.424,23.256 Z M155.992,21.912 C157.24,21.912 158.04,21.432 158.712,20.696 L158.712,10.232 C158.008,9.24 157.112,8.6 155.64,8.6 C153.208,8.6 151.736,11.416 151.736,15.672 C151.736,19.192 153.208,21.912 155.992,21.912 Z M172.536,23.48 L172.632,20.568 L172.632,2.264 C172.632,1.176 172.312,0.696 170.072,0.632 L170.072,0.248 L175.992,0.056 L175.992,10.168 C177.272,8.856 178.872,7.992 180.824,7.992 C184.568,7.992 186.712,11.128 186.712,15.16 C186.712,19.608 184.088,23.256 179.864,23.256 C178.2,23.256 176.408,22.872 174.744,21.752 L173.016,23.48 L172.536,23.48 Z M179.384,22.648 C181.944,22.648 183.064,19.672 183.064,15.32 C183.064,11.832 181.656,9.272 179.16,9.272 C177.912,9.272 176.984,9.752 175.992,10.808 L175.992,20.12 C176.664,21.816 178.008,22.648 179.384,22.648 Z M194.488,23.224 C196.6,23.224 198.424,22.04 199.8,19.736 L199.8,23 L205.4,23 L205.4,22.648 C203.576,22.584 203.096,22.264 203.096,21.432 L203.096,8.184 L197.432,8.344 L197.432,8.728 C199.256,8.76 199.736,9.304 199.736,10.264 L199.736,18.968 C198.904,20.6 197.784,21.592 196.376,21.592 C194.456,21.592 193.784,20.344 193.784,18.04 L193.784,8.184 L188.088,8.312 L188.088,8.696 C189.944,8.728 190.424,9.304 190.424,10.264 L190.424,18.744 C190.424,21.752 191.992,23.224 194.488,23.224 Z M210.328,5.432 C211.608,5.432 212.44,4.536 212.44,3.256 C212.44,1.976 211.608,1.144 210.328,1.144 C209.08,1.144 208.248,2.04 208.248,3.352 C208.248,4.632 209.08,5.432 210.328,5.432 Z M206.488,23 L214.52,23 L214.52,22.616 C212.536,22.584 212.184,22.36 212.184,21.4 L212.184,8.184 L206.488,8.408 L206.488,8.792 C208.344,8.824 208.824,9.432 208.824,10.392 L208.824,21.4 C208.824,22.36 208.344,22.584 206.488,22.616 L206.488,23 Z M215.736,23 L223.672,23 L223.672,22.616 C221.816,22.584 221.4,22.36 221.4,21.4 L221.4,0.056 L215.48,0.248 L215.48,0.632 C217.72,0.696 218.04,1.176 218.04,2.264 L218.04,21.4 C218.04,22.36 217.592,22.584 215.736,22.616 L215.736,23 Z M231.672,23.256 C227.704,23.256 225.336,20.024 225.336,15.832 C225.336,11.448 228.312,7.992 232.696,7.992 C234.232,7.992 235.096,8.312 235.96,8.76 L235.96,2.264 C235.96,1.176 235.64,0.696 233.4,0.632 L233.4,0.248 L239.32,0.056 L239.32,21.368 C239.32,22.168 239.8,22.648 241.624,22.68 L241.624,23 L236.024,23.128 L236.024,21.368 C234.968,22.456 233.528,23.256 231.672,23.256 Z M233.24,21.912 C234.488,21.912 235.288,21.432 235.96,20.696 L235.96,10.232 C235.256,9.24 234.36,8.6 232.888,8.6 C230.456,8.6 228.984,11.416 228.984,15.672 C228.984,19.192 230.456,21.912 233.24,21.912 Z M255.096,23.256 C251.128,23.256 248.76,20.024 248.76,15.832 C248.76,11.448 251.736,7.992 256.12,7.992 C257.656,7.992 258.52,8.312 259.384,8.76 L259.384,2.264 C259.384,1.176 259.064,0.696 256.824,0.632 L256.824,0.248 L262.744,0.056 L262.744,21.368 C262.744,22.168 263.224,22.648 265.048,22.68 L265.048,23 L259.448,23.128 L259.448,21.368 C258.392,22.456 256.952,23.256 255.096,23.256 Z M256.664,21.912 C257.912,21.912 258.712,21.432 259.384,20.696 L259.384,10.232 C258.68,9.24 257.784,8.6 256.312,8.6 C253.88,8.6 252.408,11.416 252.408,15.672 C252.408,19.192 253.88,21.912 256.664,21.912 Z M269.848,5.432 C271.128,5.432 271.96,4.536 271.96,3.256 C271.96,1.976 271.128,1.144 269.848,1.144 C268.6,1.144 267.768,2.04 267.768,3.352 C267.768,4.632 268.6,5.432 269.848,5.432 Z M266.008,23 L274.04,23 L274.04,22.616 C272.056,22.584 271.704,22.36 271.704,21.4 L271.704,8.184 L266.008,8.408 L266.008,8.792 C267.864,8.824 268.344,9.432 268.344,10.392 L268.344,21.4 C268.344,22.36 267.864,22.584 266.008,22.616 L266.008,23 Z M282.456,28.888 C285.176,28.888 287.352,27.512 287.352,25.432 C287.352,24.152 286.328,23.32 283.16,23.32 L279.896,23.32 C278.36,23.8 277.624,24.6 277.624,25.784 C277.624,27.576 279.064,28.888 282.456,28.888 Z M282.168,17.4 C283.96,17.4 284.664,16.024 284.664,13.016 C284.664,10.36 283.768,8.664 281.88,8.664 C280.056,8.664 279.384,10.04 279.384,13.016 C279.384,16.024 280.312,17.4 282.168,17.4 Z M282.04,8.088 C283.032,8.088 284.056,8.312 284.952,8.696 C285.656,7.288 286.616,6.072 288.184,6.072 C289.368,6.072 290.04,6.776 290.04,7.704 C290.04,8.472 289.464,9.08 288.664,9.08 C287.96,9.08 287.224,8.472 287.224,7.448 C286.488,7.576 285.848,8.248 285.464,8.952 C287,9.752 288.088,11.064 288.088,12.952 C288.088,16.056 285.176,17.944 282.04,17.944 C281.336,17.944 280.6,17.848 279.928,17.688 C278.68,18.104 278.072,18.584 278.072,19.224 C278.072,19.864 278.616,20.376 281.144,20.376 L283.64,20.376 C287.512,20.376 289.496,21.528 289.496,24.28 C289.496,26.936 286.744,29.432 281.624,29.432 C277.656,29.432 275.128,28.056 275.128,26.2 C275.128,24.76 276.504,23.544 278.968,23.192 L278.968,23.128 C276.952,22.584 276.184,21.624 276.184,20.344 C276.184,19.32 277.176,18.136 279.128,17.432 C277.304,16.696 275.96,15.288 275.96,13.08 C275.96,10.008 278.904,8.088 282.04,8.088 Z M294.232,5.432 C295.512,5.432 296.344,4.536 296.344,3.256 C296.344,1.976 295.512,1.144 294.232,1.144 C292.984,1.144 292.152,2.04 292.152,3.352 C292.152,4.632 292.984,5.432 294.232,5.432 Z M290.392,23 L298.424,23 L298.424,22.616 C296.44,22.584 296.088,22.36 296.088,21.4 L296.088,8.184 L290.392,8.408 L290.392,8.792 C292.248,8.824 292.728,9.432 292.728,10.392 L292.728,21.4 C292.728,22.36 292.248,22.584 290.392,22.616 L290.392,23 Z M305.816,23.32 C307.832,23.32 309.24,22.2 310.264,20.12 L309.88,19.864 C309.048,21.368 308.12,22.008 307.192,22.008 C305.88,22.008 305.336,21.272 305.336,19.352 L305.336,9.368 L309.88,9.368 L309.88,8.376 L305.336,8.376 L305.336,3 L301.976,4.216 L301.976,8.28 L299,8.984 L299,9.4 L301.976,9.4 L301.976,19.064 C301.976,22.008 303.32,23.32 305.816,23.32 Z M315.512,23.192 C312.664,23.192 311.416,21.432 311.416,19.64 C311.416,18.392 311.992,17.144 313.336,16.408 C315.704,15.096 319.448,14.904 320.184,14.552 L320.184,12.248 C320.184,9.848 319.48,8.696 317.592,8.696 C316.504,8.696 315.512,9.048 314.936,9.624 C315.48,10.136 315.8,10.712 315.8,11.352 C315.8,12.472 315.128,13.24 313.88,13.24 C312.76,13.24 312.024,12.408 312.024,11.352 C312.024,9.464 314.36,8.088 317.976,8.088 C321.592,8.088 323.512,9.496 323.512,12.792 L323.512,20.248 C323.512,21.816 324.088,22.488 325.944,21.72 L326.072,22.04 C324.952,22.744 324.12,23.128 323,23.128 C321.208,23.128 320.536,22.392 320.344,20.664 L320.216,20.664 C319,22.072 317.496,23.192 315.512,23.192 Z M317.368,21.72 C318.52,21.72 319.544,20.824 320.184,19.928 L320.184,15.16 C315.928,15.992 315,16.92 315,19.096 C315,20.632 315.736,21.72 317.368,21.72 Z M326.584,23 L334.52,23 L334.52,22.616 C332.664,22.584 332.248,22.36 332.248,21.4 L332.248,0.056 L326.328,0.248 L326.328,0.632 C328.568,0.696 328.888,1.176 328.888,2.264 L328.888,21.4 C328.888,22.36 328.44,22.584 326.584,22.616 L326.584,23 Z M341.304,29.112 L341.304,28.728 C343.16,28.696 343.576,28.504 343.576,27.512 L343.576,10.392 C343.576,9.432 343.128,8.824 341.304,8.792 L341.304,8.408 L346.872,8.184 L346.872,10.296 C348.216,8.952 349.784,7.992 351.736,7.992 C355.448,7.992 357.56,11.128 357.56,15.416 C357.56,19.832 354.968,23.256 350.776,23.256 C349.176,23.256 348.088,22.936 346.936,22.328 L346.936,27.512 C346.936,28.504 347.544,28.696 349.976,28.728 L349.976,29.112 L341.304,29.112 Z M350.232,22.648 C352.696,22.648 353.944,20.216 353.944,15.608 C353.944,12.152 352.664,9.304 350.136,9.304 C348.92,9.304 347.928,9.88 346.936,10.904 L346.936,20.216 C347.608,21.976 348.792,22.648 350.232,22.648 Z M359.288,23 L367.704,23 L367.704,22.616 C365.528,22.552 364.92,22.36 364.92,21.4 L364.92,12.152 C365.848,10.584 366.712,9.656 367.96,9.496 C367.864,9.752 367.768,10.168 367.768,10.488 C367.768,11.64 368.6,12.472 369.784,12.472 C370.936,12.472 371.736,11.608 371.736,10.392 C371.736,9.144 370.936,8.056 369.176,8.056 C367.544,8.056 365.976,9.336 364.856,11.416 L364.856,8.184 L359.288,8.408 L359.288,8.792 C361.112,8.824 361.56,9.432 361.56,10.392 L361.56,21.4 C361.56,22.36 361.112,22.584 359.288,22.616 L359.288,23 Z M380.376,23.256 C376.088,23.256 372.888,20.248 372.888,15.672 C372.888,11.128 376.28,7.992 380.376,7.992 C384.6,7.992 387.832,11 387.832,15.544 C387.832,20.12 384.44,23.256 380.376,23.256 Z M380.504,22.648 C382.872,22.648 384.088,20.6 384.088,15.608 C384.088,10.616 382.648,8.6 380.216,8.6 C377.816,8.6 376.6,10.616 376.6,15.608 C376.6,20.6 378.072,22.648 380.504,22.648 Z M396.216,23.256 C392.248,23.256 389.88,20.024 389.88,15.832 C389.88,11.448 392.856,7.992 397.24,7.992 C398.776,7.992 399.64,8.312 400.504,8.76 L400.504,2.264 C400.504,1.176 400.184,0.696 397.944,0.632 L397.944,0.248 L403.864,0.056 L403.864,21.368 C403.864,22.168 404.344,22.648 406.168,22.68 L406.168,23 L400.568,23.128 L400.568,21.368 C399.512,22.456 398.072,23.256 396.216,23.256 Z M397.784,21.912 C399.032,21.912 399.832,21.432 400.504,20.696 L400.504,10.232 C399.8,9.24 398.904,8.6 397.432,8.6 C395,8.6 393.528,11.416 393.528,15.672 C393.528,19.192 395,21.912 397.784,21.912 Z M412.984,23.224 C415.096,23.224 416.92,22.04 418.296,19.736 L418.296,23 L423.896,23 L423.896,22.648 C422.072,22.584 421.592,22.264 421.592,21.432 L421.592,8.184 L415.928,8.344 L415.928,8.728 C417.752,8.76 418.232,9.304 418.232,10.264 L418.232,18.968 C417.4,20.6 416.28,21.592 414.872,21.592 C412.952,21.592 412.28,20.344 412.28,18.04 L412.28,8.184 L406.584,8.312 L406.584,8.696 C408.44,8.728 408.92,9.304 408.92,10.264 L408.92,18.744 C408.92,21.752 410.488,23.224 412.984,23.224 Z M432.184,23.256 C435.384,23.256 437.208,21.72 438.584,19.704 L438.232,19.448 C436.888,21.112 435.608,21.976 433.752,21.976 C430.392,21.976 428.824,18.968 428.824,15.32 C428.824,11.096 430.584,8.568 432.984,8.568 C434.2,8.568 434.968,9.112 435.448,9.72 C434.968,9.976 434.424,10.68 434.424,11.608 C434.424,12.664 435.16,13.496 436.472,13.496 C437.624,13.496 438.296,12.632 438.296,11.448 C438.296,9.976 436.6,7.992 432.888,7.992 C428.536,7.992 425.176,11.192 425.176,15.896 C425.176,20.216 427.928,23.256 432.184,23.256 Z M445.912,23.32 C447.928,23.32 449.336,22.2 450.36,20.12 L449.976,19.864 C449.144,21.368 448.216,22.008 447.288,22.008 C445.976,22.008 445.432,21.272 445.432,19.352 L445.432,9.368 L449.976,9.368 L449.976,8.376 L445.432,8.376 L445.432,3 L442.072,4.216 L442.072,8.28 L439.096,8.984 L439.096,9.4 L442.072,9.4 L442.072,19.064 C442.072,22.008 443.416,23.32 445.912,23.32 Z M451.448,23.256 L451.8,23.256 L452.856,22.104 C453.816,22.744 455.896,23.256 457.08,23.256 C460.568,23.256 462.488,21.016 462.488,18.328 C462.488,15.832 460.92,14.68 457.656,13.784 C455.192,13.144 453.912,12.44 453.912,11.064 C453.912,9.592 455.032,8.6 456.504,8.6 C458.456,8.6 459.384,9.752 461.24,12.76 L461.688,12.76 L461.688,7.992 L461.336,7.992 L460.536,8.984 C459.672,8.472 458.328,7.992 456.92,7.992 C453.624,7.992 451.512,9.944 451.512,12.696 C451.512,15.064 452.888,16.088 456.152,17.016 C459.32,17.912 460.216,18.712 460.216,20.184 C460.216,21.432 459.256,22.648 457.464,22.648 C455.16,22.648 453.944,21.496 451.896,17.944 L451.448,17.944 L451.448,23.256 Z M467.32,23.512 C468.536,23.512 469.464,22.552 469.464,21.368 C469.464,20.216 468.536,19.256 467.32,19.256 C466.072,19.256 465.112,20.216 465.112,21.4 C465.112,22.552 466.072,23.512 467.32,23.512 Z"></path>
          </g>
        </g>
      </g>
    </g>
  </g>
</svg>